<svg xmlns="http://www.w3.org/2000/svg" width="64" height="64" x="0" y="0" viewBox="0 0 172 172" style="fill:#000"><g fill="none" fill-rule="nonzero" stroke="none" stroke-dashoffset="0" stroke-linecap="butt" stroke-linejoin="miter" stroke-miterlimit="10" stroke-width="1" font-family="none" font-size="none" font-weight="none" text-anchor="none" style="mix-blend-mode:normal"><path fill="none" d="M0,172v-172h172v172z"/><g fill="#fff"><path d="M86,30.90625c-12.49688,0 -23.11303,8.59947 -26.06928,20.2901c-0.67187,-0.13437 -1.34322,-0.13385 -2.14947,-0.13385c-9.675,0 -17.87083,5.9125 -19.75208,14.78125h-8.46667c-1.075,0 -2.14947,0.40365 -2.82135,1.2099c-0.80625,0.67188 -1.2099,1.74635 -1.2099,2.82135l0.13385,64.90417c0,8.46562 6.0474,15.45208 13.97553,17.06458c0,0.5375 -0.13385,1.2099 -0.13385,1.88177c0,3.225 0.94115,6.3151 2.55365,8.86823h-16.52917c-2.28438,0 -4.03125,1.74687 -4.03125,4.03125c0,2.28438 1.74687,4.03125 4.03125,4.03125h90.03125c9.40625,0 16.93072,-7.65885 16.93072,-16.93073c0,-0.5375 0.00053,-1.21042 -0.13385,-1.74792c8.0625,-1.47813 14.24323,-8.59843 14.24323,-17.19843v-64.90417c0,-2.28437 -1.74687,-4.03125 -4.03125,-4.03125h-8.19635v-1.34375c0,-11.15312 -9.00312,-20.15625 -20.15625,-20.15625c-1.6125,0 -3.09115,0.26928 -4.56928,0.53803c-4.56875,-8.33125 -13.43697,-13.97553 -23.64947,-13.97553zM33.59375,73.90625h104.94635v60.87292c0,5.10625 -4.0302,9.1375 -9.00208,9.40625c-3.09063,-4.43437 -8.1974,-7.39062 -13.97553,-7.39062c-5.77813,0 -11.01928,2.95625 -13.97553,7.39063h-31.17395c-3.09063,-4.43437 -8.1974,-7.39062 -13.97553,-7.39062c-5.77812,0 -10.8849,2.95625 -13.97553,7.39063c-4.97187,-0.40312 -8.73385,-4.43437 -8.86822,-9.40625zM56.4375,144.8573c4.97188,0 8.86822,4.03073 8.86822,8.86823c0,4.8375 -4.03072,8.86823 -8.86822,8.86823c-4.97188,0 -8.86822,-4.03073 -8.86822,-8.86823c0,-4.8375 4.03072,-8.86823 8.86822,-8.86823zM115.5625,144.8573c4.8375,0 8.86822,4.03073 8.86822,8.86823c0,4.8375 -4.03072,8.86823 -8.86822,8.86823c-4.97187,0 -8.86822,-4.03073 -8.86822,-8.86823c0,-4.8375 4.03072,-8.86823 8.86822,-8.86823zM73.23438,152.24792h25.3974c0,0.5375 -0.13385,0.9401 -0.13385,1.4776c0,3.225 0.93853,6.3151 2.55103,8.86823h-30.23437c1.6125,-2.55312 2.55365,-5.64323 2.55365,-8.86823c0,-0.5375 0.00053,-0.9401 -0.13385,-1.4776zM5.04431,162.51502c-0.98892,0.04409 -1.91904,0.44931 -2.62451,1.15478c-0.80625,0.80625 -1.2099,1.74635 -1.2099,2.82135c0,0.26875 -0.00052,0.53698 0.13385,0.80573c0,0.26875 0.13333,0.53698 0.2677,0.80573c0.13438,0.26875 0.2698,0.5375 0.40417,0.67188c0.13437,0.26875 0.26927,0.40312 0.53802,0.67188c0.80625,0.80625 1.74635,1.2099 2.82135,1.2099c1.075,0 2.14948,-0.40365 2.82135,-1.2099c0.13438,-0.13438 0.40365,-0.40312 0.53802,-0.67187c0.13438,-0.26875 0.2698,-0.40312 0.40417,-0.67187c0.13438,-0.26875 0.13333,-0.53698 0.2677,-0.80573v-0.80573c0,-1.075 -0.40365,-2.14948 -1.2099,-2.82135c-0.26875,-0.13438 -0.40313,-0.2698 -0.67187,-0.40417c-0.26875,-0.13438 -0.40313,-0.2698 -0.67187,-0.40417c-0.26875,-0.13438 -0.53698,-0.13333 -0.80573,-0.2677c-0.33594,-0.06719 -0.67292,-0.09343 -1.00256,-0.07873z"/></g></g></svg>